<?xml version="1.0" encoding="UTF-8"?>
<svg version="1.1" xmlns="http://www.w3.org/2000/svg" xmlns:xlink="http://www.w3.org/1999/xlink">
<defs>

</defs>
<symbol id="i-android" xmlns="http://www.w3.org/2000/svg" viewBox="0 0 17.861 21.108"><g data-name="Group 34"><path d="M1.307 6.837a1.26 1.26 0 00-.926.381 1.246 1.246 0 00-.38.913v5.455a1.3 1.3 0 001.306 1.306 1.239 1.239 0 00.92-.38 1.271 1.271 0 00.374-.926V8.131a1.3 1.3 0 00-1.294-1.294z" class="cls-1" data-name="Path 50"/><path d="M3.108 15.526a1.386 1.386 0 001.4 1.4h.939l.013 2.879a1.261 1.261 0 00.381.926 1.245 1.245 0 00.913.381 1.3 1.3 0 001.307-1.307v-2.879h1.75v2.879a1.306 1.306 0 102.613 0v-2.879h.952a1.331 1.331 0 00.977-.406 1.347 1.347 0 00.406-.989V7.083H3.108z" class="cls-1" data-name="Path 51"/><path d="M11.81 1.941l.9-1.662a.167.167 0 00-.063-.254.176.176 0 00-.254.076l-.913 1.674a6.367 6.367 0 00-5.1 0L5.467.101A.176.176 0 005.21.026a.167.167 0 00-.063.254l.9 1.662a5.556 5.556 0 00-2.182 1.947 4.918 4.918 0 00-.812 2.734h11.734a4.917 4.917 0 00-.812-2.734 5.578 5.578 0 00-2.165-1.948zM6.603 4.357a.475.475 0 01-.349.146.455.455 0 01-.343-.146.506.506 0 010-.7.455.455 0 01.343-.146.493.493 0 01.349.844zm5.347 0a.456.456 0 01-.343.146.495.495 0 010-.989.456.456 0 01.343.146.506.506 0 010 .7z" class="cls-1" data-name="Path 52"/><path d="M17.48 7.211a1.271 1.271 0 00-.926-.374 1.256 1.256 0 00-.913.374 1.24 1.24 0 00-.381.92v5.455a1.26 1.26 0 00.381.926 1.245 1.245 0 00.913.38 1.3 1.3 0 001.307-1.306V8.131a1.239 1.239 0 00-.381-.92z" class="cls-1" data-name="Path 53"/></g></symbol>
<symbol id="i-apple" xmlns="http://www.w3.org/2000/svg" viewBox="0 0 15.891 19.445"><path d="M.825 7.148c-1.644 2.853-.6 7.182 1.219 9.807.907 1.312 1.826 2.49 3.084 2.49H5.2a3.809 3.809 0 001.431-.382 3.92 3.92 0 011.7-.4 3.686 3.686 0 011.614.389 3.42 3.42 0 001.546.371c1.417-.026 2.288-1.3 3.055-2.419a10.721 10.721 0 001.339-2.742l.005-.017a.159.159 0 00-.085-.2h-.012a4.063 4.063 0 01-2.468-3.724 4.182 4.182 0 011.976-3.5l.016-.01a.159.159 0 00.045-.224 4.6 4.6 0 00-3.617-1.964c-.1-.01-.209-.015-.316-.015a6.306 6.306 0 00-2.27.567 3.65 3.65 0 01-1.088.325 3.558 3.558 0 01-1.125-.329 5.451 5.451 0 00-1.983-.5h-.05A4.862 4.862 0 00.825 7.148z" class="cls-1"/><path d="M11.745 0a4.44 4.44 0 00-2.931 1.5 4.16 4.16 0 00-1.053 3.084.159.159 0 00.146.138c.068.005.137.008.206.008a3.755 3.755 0 002.767-1.419A4.385 4.385 0 0011.909.142.16.16 0 0011.745 0z" class="cls-1"/></symbol>
<symbol id="i-arrow-down-1" xmlns="http://www.w3.org/2000/svg" viewBox="0 0 451.847 451.847"><path d="M225.923 354.706c-8.098 0-16.195-3.092-22.369-9.263L9.27 151.157c-12.359-12.359-12.359-32.397 0-44.751 12.354-12.354 32.388-12.354 44.748 0l171.905 171.915 171.906-171.909c12.359-12.354 32.391-12.354 44.744 0 12.365 12.354 12.365 32.392 0 44.751L248.292 345.449c-6.177 6.172-14.274 9.257-22.369 9.257z"/></symbol>
<symbol id="i-geo" xmlns="http://www.w3.org/2000/svg" viewBox="0 0 8.98 12.397"><path d="M4.49 0A4.5 4.5 0 000 4.49c0 3.072 4.018 7.583 4.189 7.773a.4.4 0 00.6 0c.171-.191 4.189-4.7 4.189-7.773A4.5 4.5 0 004.49 0zm0 6.749A2.259 2.259 0 116.749 4.49 2.262 2.262 0 014.49 6.749z" fill="#979898"/></symbol>
<symbol id="i-mark" xmlns="http://www.w3.org/2000/svg" viewBox="0 0 8.98 12.397"><g data-name="Group 1052"><path d="M4.49 0A4.5 4.5 0 000 4.49c0 3.072 4.018 7.583 4.189 7.773a.4.4 0 00.6 0c.171-.191 4.189-4.7 4.189-7.773A4.5 4.5 0 004.49 0zm0 6.749A2.259 2.259 0 116.749 4.49 2.262 2.262 0 014.49 6.749z" class="cls-1" data-name="Path 1668"/></g></symbol>
<symbol id="i-star" xmlns="http://www.w3.org/2000/svg" viewBox="0 0 47.94 47.94"><path d="M26.285 2.486l5.407 10.956a2.58 2.58 0 001.944 1.412l12.091 1.757c2.118.308 2.963 2.91 1.431 4.403l-8.749 8.528a2.582 2.582 0 00-.742 2.285l2.065 12.042c.362 2.109-1.852 3.717-3.746 2.722l-10.814-5.685a2.585 2.585 0 00-2.403 0l-10.814 5.685c-1.894.996-4.108-.613-3.746-2.722l2.065-12.042a2.582 2.582 0 00-.742-2.285L.783 21.014c-1.532-1.494-.687-4.096 1.431-4.403l12.091-1.757a2.58 2.58 0 001.944-1.412l5.407-10.956c.946-1.919 3.682-1.919 4.629 0z"/></symbol>
</svg>